<svg class="svg-icon" style="width: 1em; height: 1em;vertical-align: middle;fill: currentColor;overflow: hidden;" viewBox="0 0 1024 1024" version="1.1" xmlns="http://www.w3.org/2000/svg"><path d="M850.6 325.5L558.8 92c-13-10.4-29.2-16.1-45.8-16.1-16.6 0-32.9 5.7-45.8 16.1L175.4 325.5c-32.1 25.7-50.6 64.1-50.6 105.2v374.4c0 73 59.4 132.4 132.4 132.4h511.6c73 0 132.4-59.4 132.4-132.4V430.7c0-41.2-18.4-79.5-50.6-105.2z m-427.4 540V570.2h194.7v295.3H423.2z m406-60.4c0 33.3-27.1 60.4-60.4 60.4h-78.9V536.2c0-21-17-38-38-38H389.2c-21 0-38 17-38 38v329.3h-94c-33.3 0-60.4-27.1-60.4-60.4V430.7c0-19.2 8.6-37 23.5-49l291.8-233.5c0.2-0.2 0.5-0.3 0.8-0.3 0.3 0 0.6 0.1 0.8 0.3l291.8 233.5c15 12 23.5 29.8 23.5 49v374.4z"  /></svg>